<?xml version="1.0" encoding="UTF-8" standalone="no"?>
<!-- Generator: Adobe Illustrator 19.0.0, SVG Export Plug-In . SVG Version: 6.00 Build 0)  -->

<svg
   version="1.1"
   id="layer"
   x="0px"
   y="0px"
   viewBox="-153 -46 652 652"
   style="enable-background:new -153 -46 652 652;"
   xml:space="preserve"
   sodipodi:docname="duke-health-logo-vector.svg"
   inkscape:version="1.3.2 (091e20e, 2023-11-25, custom)"
   xmlns:inkscape="http://www.inkscape.org/namespaces/inkscape"
   xmlns:sodipodi="http://sodipodi.sourceforge.net/DTD/sodipodi-0.dtd"
   xmlns="http://www.w3.org/2000/svg"
   xmlns:svg="http://www.w3.org/2000/svg"><defs
   id="defs7" /><sodipodi:namedview
   id="namedview7"
   pagecolor="#ffffff"
   bordercolor="#000000"
   borderopacity="0.25"
   inkscape:showpageshadow="2"
   inkscape:pageopacity="0.0"
   inkscape:pagecheckerboard="0"
   inkscape:deskcolor="#d1d1d1"
   inkscape:zoom="1.2469325"
   inkscape:cx="326"
   inkscape:cy="326"
   inkscape:window-width="1920"
   inkscape:window-height="1009"
   inkscape:window-x="-8"
   inkscape:window-y="-8"
   inkscape:window-maximized="1"
   inkscape:current-layer="layer" />
<style
   type="text/css"
   id="style1">
	.st0{fill:#00539B;}
	.st1{fill:#FFFFFF;}
</style>
<rect
   x="90.433334"
   y="204.28426"
   class="st0"
   width="139.39999"
   height="139.60001"
   id="rect1" />
<path
   class="st1"
   d="m 184.93333,302.68426 c -9.6,7 -23.6,10.9 -24.8,11.2 v 0 c 1.1,-0.5 12.6,-6.1 17.7,-11.1 2.4,-2.4 4.4,-5.9 5.7,-8.8 -0.6,0.5 -1.1,1.5 -7.1,4.7 -5.7,3 -15.3,6.5 -16.3,6.8 v 0 c 0.8,-0.5 7.7,-4.3 11.8,-9 2.5,-2.8 4.5,-5.3 5.5,-7.8 -4.9,3.9 -16.2,8.1 -17.3,8.5 v 0 c 0.7,-0.4 4.9,-3 8.4,-7.1 2.6,-3 2.8,-4.9 3.2,-6.4 -5.3,4.2 -10.8,5 -11.6,5.1 v 0 c 0.7,-0.5 5.3,-3.7 5.5,-10.2 -4.2,3.8 -7.8,2.5 -9.5,1 -1.7,-1.5 -1.6,-4.6 -1.6,-4.6 v -44.4 h -5.6 v 4.1 h -7.6 v -4.1 h -5.6 v 4.1 h -7.5 v -4.1 h -5.6 v 50.9 c 0,0 0.1,14.5 13.4,25.5 9.3,7.7 24.2,14.9 24.2,14.9 1.2,-0.6 15.3,-7.6 21.4,-13 4.4,-3.9 6.5,-6.5 7.9,-9.8 -1.3,1.2 -2.9,2.4 -4.6,3.6"
   id="path1" />
<path
   class="st1"
   d="m 177.53333,270.68426 v -35.9 h -5.2 v 42.8 c 0,0 0.2,3 -0.7,6.3 6.8,-4.5 5.9,-13.2 5.9,-13.2"
   id="path2" />
<path
   class="st1"
   d="m 184.13333,274.88426 v -44.3 h -5.1 v 50.6 c 0,0 0.2,3.5 -1.5,7.6 6.6,-5.4 6.6,-13.9 6.6,-13.9"
   id="path3" />
<path
   class="st1"
   d="m 190.73333,277.68426 v -42.9 h -5.1 v 49.3 c 0,0 -0.4,6.8 -2,9.9 7.2,-4.7 7.1,-16.3 7.1,-16.3"
   id="path4" />
<path
   class="st1"
   d="m 197.33333,281.18426 v -50.6 h -5.2 v 57.9 c 0,0 -0.3,5.2 -2.6,10.5 8.1,-7.8 7.8,-17.8 7.8,-17.8"
   id="path5" />
<path
   class="st1"
   d="m 171.03333,267.58426 v -37 h -5.2 v 43.6 c 0,0 0,3.2 -0.2,4.4 6,-5 5.4,-11 5.4,-11"
   id="path6" />
<path
   class="st0"
   d="m -44.712546,377.90308 h 20.3 c 19.3999999,0 32.9999999,6.1 32.9999999,27.6 0,20.8 -14,28.1 -32.9999999,28.1 h -20.3 z m 14.9,44.7 h 5.7 c 11.1,0 17.2999999,-5.7 17.2999999,-16.8 0,-11.1 -6.4999999,-16.8 -17.2999999,-16.8 h -5.7 z m 88.4,-30.5 h -14.4 v 17.6 c 0,8.9 -3,13 -8.9,13 -3.9,0 -6.6,-2.6 -6.6,-10.5 v -20.1 h -14.4 v 25.9 c 0,8.6 4.6,16.6 15.9,16.6 6.5,0 12.3,-2.6 15.2,-8.6 h 0.2 v 7.7 h 13.1 v -41.6 z m 8.5,41.6 h 14.4 v -20.6 h 0.2 l 11.5,20.6 h 17.399996 l -15.599996,-22.5 14.499996,-19.1 H 93.787454 l -12,17.5 h -0.2 v -35.8 h -14.4 v 59.9 z m 57.299996,-16.6 c 0.8,5.7 5.2,8 12.2,8 3.9,0 8.4,-0.9 12.7,-3.2 v 10.1 c -4.6,1.8 -9.9,2.6 -15.2,2.6 -13.7,0 -24.2,-8.1 -24.2,-21.8 0,-13.7 9.3,-21.7 22.3,-21.7 15.4,0 21,10.9 21,23.3 v 2.6 h -28.8 z m 15.9,-8.2 c 0,-4.8 -2.2,-8.7 -8,-8.7 -5.2,0 -7.7,3.9 -8,8.7 z m 23,24.8 h 8 v -25.4 h 26.7 v 25.4 h 8 v -55.7 h -8 v 23.3 h -26.7 v -23.3 h -8 v 55.7 z m 85.8,-1.7 c -2.9,1 -6.2,2.6 -12.9,2.6 -14.5,0 -21.1,-8.8 -21.1,-22 0,-12.1 7.6,-20.6 19.1,-20.6 13.6,0 18,9.9 18,23 h -29.1 c 0,8.1 6.3,13.6 13.4,13.6 5,0 10.7,-2.6 12.5,-4.1 v 7.5 z m -4.9,-22.6 c 0,-6.2 -3.7,-11.3 -10.1,-11.3 -7.3,0 -10.4,6.1 -10.9,11.3 z m 17.9,-13.6 c 3.8,-2.2 8.2,-3.8 13.4,-3.8 11.7,0 16.4,5.7 16.4,16.8 v 16.8 c 0,4.6 0.2,6.8 0.3,8 h -7 v -5.3 h -0.2 c -1.8,2.5 -5.7,6.2 -12.6,6.2 -8.8,0 -14.9,-3.8 -14.9,-12.7 0,-10.2 11.2,-13.4 18.9,-13.4 2.9,0 5,0 8,0.2 0,-7 -2.6,-10.6 -10.1,-10.6 -4.2,0 -8.8,1.6 -11.8,4.1 z m 22.3,18.5 c -1.6,0 -3.2,-0.2 -4.8,-0.2 -4.1,0 -14.1,0.6 -14.1,7.8 0,4.3 4.1,6.6 7.6,6.6 7.4,0 11.3,-4.6 11.3,-10.7 z m 17.8,19.4 h 7.5 v -59.9 h -7.5 z m 40.9,-40.7 h -10.8 v -11.8 l -7.5,2.4 v 9.4 h -9.2 v 6.1 h 9.2 v 23.8 c 0,8.1 4.8,11.8 12.5,11.8 2.4,0 4.7,-0.6 6.4,-1.1 v -6.4 c -1.1,0.7 -2.8,1.4 -5.1,1.4 -3.4,0 -6.3,-2.6 -6.3,-7.3 v -22.3 h 10.8 v -6 z m 7.4,40.7 h 7.5 v -18.8 c 0,-9.9 3.8,-16.8 12.4,-16.8 6.5,0.4 8.6,5 8.6,14.5 v 21.1 h 7.5 v -24.2 c 0,-10.9 -4.7,-17.5 -15.3,-17.5 -5.7,0 -10.4,2.5 -13.1,6.8 h -0.2 v -25 h -7.5 v 59.9 z"
   id="path7" />
</svg>
